#!OML:ASF C:\Vicon Data\Big\jianyuan-13\jianyuan\Session 1\Capture.male.ASF
:FULLY-SPECIFIED
:DEGREES
28
root -7.786128 17.740946 -23.581219 10.713546 -4.942933 3.075505
lowerback -13.464332 -1.835556 -4.425666 
upperback 2.424238 -1.617218 -0.743539 
thorax 10.327204 -1.011380 1.336812 
lowerneck -4.189704 -0.663957 1.634753 
upperneck 23.265195 -0.552387 -2.681623 
head 7.826103 -0.369641 -1.208378 
rclavicle 0.000000 0.000000 
rhumerus -39.049703 -22.324201 -74.489819 
rradius 27.449554 
rwrist 36.071796 
rhand -17.430650 -16.681653 
rfingers 0.000000 
rthumb 8.819775 -46.477360 
lclavicle 0.000000 0.000000 
lhumerus -11.590912 0.217679 93.719609 
lradius 46.643691 
lwrist -29.662317 
lhand -19.655839 2.496781 
lfingers 0.000000 
lthumb 6.672098 32.371666 
rfemur -32.713442 1.614610 22.669593 
rtibia 26.877641 
rfoot -9.148434 -11.809469 
rtoes -17.841026 
lfemur -1.887325 -3.488476 -28.386755 
ltibia 21.086540 
lfoot -9.443497 -5.900732 
ltoes -31.633867 
29
root -7.799652 17.754440 -23.481154 10.799392 -4.922955 3.154393
lowerback -13.524277 -1.875911 -4.490640 
upperback 2.415486 -1.661065 -0.700361 
thorax 10.359065 -1.038049 1.408855 
lowerneck -4.154353 -0.707411 1.674332 
upperneck 23.296047 -0.554506 -2.968934 
head 7.827954 -0.392848 -1.310474 
rclavicle 0.000000 0.000000 
rhumerus -38.813597 -21.644049 -74.918011 
rradius 27.880165 
rwrist 35.341204 
rhand -17.383557 -16.813661 
rfingers 0.000000 
rthumb 8.865194 -46.607500 
lclavicle 0.000000 0.000000 
lhumerus -11.681994 0.550427 93.766688 
lradius 46.052540 
lwrist -30.123415 
lhand -19.706600 2.447117 
lfingers 0.000000 
lthumb 6.623034 32.323528 
rfemur -32.495029 1.591821 22.618459 
rtibia 27.038209 
rfoot -9.593951 -11.776579 
rtoes -17.980465 
lfemur -2.212791 -3.061066 -28.343684 
ltibia 22.065522 
lfoot -8.681780 -6.159384 
ltoes -32.525825 
30
root -7.813305 17.768687 -23.383890 10.894223 -4.915724 3.196221
lowerback -13.606014 -1.894172 -4.450287 
upperback 2.402898 -1.687788 -0.703920 
thorax 10.392907 -1.048442 1.374324 
lowerneck -4.064326 -0.728540 1.672300 
upperneck 23.255419 -0.582646 -2.973327 
head 7.797359 -0.406240 -1.312679 
rclavicle 0.000000 0.000000 
rhumerus -38.562484 -20.924259 -75.458287 
rradius 28.294115 
rwrist 34.463850 
rhand -17.533338 -16.984782 
rfingers 0.000000 
rthumb 8.720686 -46.784588 
lclavicle 0.000000 0.000000 
lhumerus -11.761416 1.068440 93.758501 
lradius 45.325039 
lwrist -30.800831 
lhand -19.766689 2.268008 
lfingers 0.000000 
lthumb 6.565042 32.146227 
rfemur -32.332044 1.551303 22.598933 
rtibia 27.284969 
rfoot -10.103034 -11.658027 
rtoes -17.323552 
lfemur -2.553505 -2.561569 -28.273788 
ltibia 23.034678 
lfoot -7.887129 -6.285517 
ltoes -33.177382 
31
root -7.825753 17.787672 -23.290149 10.938443 -4.871958 3.308838
lowerback -13.632918 -1.927691 -4.409028 
upperback 2.394888 -1.729973 -0.788120 
thorax 10.397985 -1.062882 1.249671 
lowerneck -4.080351 -0.607266 1.810370 
upperneck 23.342037 -0.451780 -2.876065 
head 7.832701 -0.324142 -1.295083 
rclavicle 0.000000 0.000000 
rhumerus -38.506729 -20.586651 -75.881842 
rradius 28.620937 
rwrist 34.538300 
rhand -17.670431 -16.916181 
rfingers 0.000000 
rthumb 8.588362 -46.721546 
lclavicle 0.000000 0.000000 
lhumerus -11.800870 1.699273 93.645408 
lradius 44.594368 
lwrist -31.426911 
lhand -19.715073 2.142397 
lfingers 0.000000 
lthumb 6.614848 32.019109 
rfemur -32.027219 1.883730 22.273536 
rtibia 27.494702 
rfoot -11.075289 -11.623563 
rtoes -14.112208 
lfemur -2.920771 -2.139111 -28.272061 
ltibia 24.121675 
lfoot -7.249923 -6.340419 
ltoes -33.930923 
32
root -7.841825 17.797587 -23.201585 11.053891 -4.876814 3.321127
lowerback -13.713694 -1.931112 -4.374850 
upperback 2.342483 -1.737132 -0.790855 
thorax 10.385972 -1.063127 1.224803 
lowerneck -4.033221 -0.601867 1.756155 
upperneck 23.435270 -0.457251 -2.777494 
head 7.856019 -0.322414 -1.254399 
rclavicle 0.000000 0.000000 
rhumerus -38.392595 -19.972244 -76.364312 
rradius 29.151154 
rwrist 33.493443 
rhand -17.517691 -16.918220 
rfingers 0.000000 
rthumb 8.735819 -46.717411 
lclavicle 0.000000 0.000000 
lhumerus -11.979224 2.145792 93.578797 
lradius 43.891857 
lwrist -31.941928 
lhand -19.810181 2.096755 
lfingers 0.000000 
lthumb 6.523095 31.976292 
rfemur -31.871066 1.929920 22.314437 
rtibia 27.606773 
rfoot -11.321202 -11.657893 
rtoes -14.671234 
lfemur -3.494417 -1.401793 -28.124291 
ltibia 25.383448 
lfoot -6.378212 -6.637659 
ltoes -33.887028 
33
root -7.856618 17.805300 -23.115177 11.138476 -4.852632 3.355906
lowerback -13.741322 -1.946221 -4.481688 
upperback 2.307143 -1.747608 -0.695854 
thorax 10.370723 -1.077228 1.385561 
lowerneck -4.039285 -0.630152 1.787285 
upperneck 23.548537 -0.446184 -3.016135 
head 7.893810 -0.335841 -1.339207 
rclavicle 0.000000 0.000000 
rhumerus -38.332277 -19.348406 -76.603088 
rradius 29.601155 
rwrist 33.000611 
rhand -17.442774 -16.660365 
rfingers 0.000000 
rthumb 8.808111 -46.456545 
lclavicle 0.000000 0.000000 
lhumerus -12.068136 2.886176 93.687654 
lradius 43.090694 
lwrist -32.964235 
lhand -19.851168 2.022286 
lfingers 0.000000 
lthumb 6.483479 31.903053 
rfemur -31.644973 1.839643 22.372537 
rtibia 27.617899 
rfoot -11.508791 -11.590149 
rtoes -15.522349 
lfemur -4.114207 -0.577407 -27.963526 
ltibia 26.805967 
lfoot -5.503107 -7.144336 
ltoes -34.489666 
34
root -7.872850 17.809356 -23.031198 11.162132 -4.806172 3.398361
lowerback -13.712228 -1.955593 -4.554284 
upperback 2.274685 -1.754828 -0.648352 
thorax 10.322407 -1.085596 1.477786 
lowerneck -4.003123 -0.646354 1.725046 
upperneck 23.600618 -0.460263 -3.012174 
head 7.904624 -0.347146 -1.328723 
rclavicle 0.000000 0.000000 
rhumerus -38.281341 -18.790204 -76.941512 
rradius 30.024150 
rwrist 32.640233 
rhand -17.534989 -16.678072 
rfingers 0.000000 
rthumb 8.719106 -46.477958 
lclavicle 0.000000 0.000000 
lhumerus -12.187446 3.572237 93.747432 
lradius 42.363707 
lwrist -33.405873 
lhand -19.883166 2.026440 
lfingers 0.000000 
lthumb 6.452606 31.908121 
rfemur -31.390109 1.681925 22.459546 
rtibia 27.649600 
rfoot -11.594550 -11.485985 
rtoes -17.170924 
lfemur -4.743318 0.281532 -27.781320 
ltibia 28.312317 
lfoot -4.518488 -7.645159 
ltoes -34.480018 
35
root -7.886097 17.813243 -22.951532 11.254440 -4.713725 3.355380
lowerback -13.799748 -1.941441 -4.437909 
upperback 2.283006 -1.751504 -0.643590 
thorax 10.378261 -1.078076 1.415618 
lowerneck -4.043367 -0.667947 1.738579 
upperneck 23.619038 -0.489471 -3.020932 
head 7.917195 -0.360636 -1.336653 
rclavicle 0.000000 0.000000 
rhumerus -38.210567 -18.222340 -77.353856 
rradius 30.531560 
rwrist 32.122522 
rhand -17.546323 -16.566944 
rfingers 0.000000 
rthumb 8.708121 -46.367296 
lclavicle 0.000000 0.000000 
lhumerus -12.230699 4.081664 93.698355 
lradius 41.626563 
lwrist -33.980606 
lhand -20.000328 2.057791 
lfingers 0.000000 
lthumb 6.339503 31.942932 
rfemur -31.215724 1.630472 22.554706 
rtibia 27.735371 
rfoot -11.861758 -11.400169 
rtoes -17.612187 
lfemur -5.500512 1.266073 -27.467973 
ltibia 29.844990 
lfoot -3.220284 -8.407846 
ltoes -34.228357 
36
root -7.900096 17.814621 -22.872762 11.334646 -4.607040 3.356946
lowerback -13.824913 -1.955767 -4.427607 
upperback 2.234885 -1.776823 -0.598952 
thorax 10.342071 -1.089911 1.452776 
lowerneck -4.031536 -0.795609 1.741584 
upperneck 23.731108 -0.606182 -3.286508 
head 7.947686 -0.439600 -1.435663 
rclavicle 0.000000 0.000000 
rhumerus -38.202823 -17.574056 -77.721864 
rradius 31.048488 
rwrist 31.497979 
rhand -17.443122 -16.731387 
rfingers 0.000000 
rthumb 8.807742 -46.527615 
lclavicle 0.000000 0.000000 
lhumerus -12.375152 4.851395 93.712841 
lradius 40.890452 
lwrist -34.723979 
lhand -20.106511 2.103637 
lfingers 0.000000 
lthumb 6.237012 31.991810 
rfemur -31.057902 1.416832 22.646237 
rtibia 27.858502 
rfoot -12.146726 -11.215341 
rtoes -17.275853 
lfemur -6.256415 2.179644 -27.176621 
ltibia 31.408331 
lfoot -1.899119 -9.133618 
ltoes -33.574174 
37
root -7.918928 17.816355 -22.794587 11.427561 -4.595442 3.279800
lowerback -13.878267 -1.929075 -4.374582 
upperback 2.190328 -1.753495 -0.551408 
thorax 10.321770 -1.076377 1.479363 
lowerneck -4.070783 -0.791634 1.761242 
upperneck 23.780960 -0.600075 -3.296071 
head 7.971616 -0.435991 -1.442615 
rclavicle 0.000000 0.000000 
rhumerus -38.183399 -16.970136 -78.109853 
rradius 31.534294 
rwrist 31.054251 
rhand -17.369557 -16.846455 
rfingers 0.000000 
rthumb 8.878735 -46.639675 
lclavicle 0.000000 0.000000 
lhumerus -12.550706 5.449632 93.649258 
lradius 40.226199 
lwrist -35.180955 
lhand -20.027360 2.074076 
lfingers 0.000000 
lthumb 6.313374 31.959977 
rfemur -30.885347 1.343424 22.809099 
rtibia 27.967129 
rfoot -12.376829 -10.956007 
rtoes -18.131810 
lfemur -7.060725 3.197385 -26.771244 
ltibia 33.047055 
lfoot -0.566992 -9.829095 
ltoes -33.166878 
38
root -7.936405 17.814514 -22.717903 11.493465 -4.518013 3.128186
lowerback -13.929482 -1.913086 -4.211433 
upperback 2.187130 -1.763379 -0.499951 
thorax 10.344204 -1.073510 1.439633 
lowerneck -4.166368 -0.756954 1.717112 
upperneck 23.880564 -0.579281 -3.142735 
head 8.024379 -0.416687 -1.384398 
rclavicle 0.000000 0.000000 
rhumerus -38.126014 -16.419610 -78.528043 
rradius 32.010943 
rwrist 30.587298 
rhand -17.262926 -16.817199 
rfingers 0.000000 
rthumb 8.981634 -46.605996 
lclavicle 0.000000 0.000000 
lhumerus -12.665662 6.169833 93.548710 
lradius 39.493604 
lwrist -35.982446 
lhand -20.133911 2.006997 
lfingers 0.000000 
lthumb 6.210529 31.895947 
rfemur -30.704836 0.967178 23.130666 
rtibia 28.072682 
rfoot -12.601395 -10.505761 
rtoes -18.155356 
lfemur -7.887590 4.136724 -26.250157 
ltibia 34.737981 
lfoot 1.007239 -10.456067 
ltoes -32.516622 
39
root -7.952724 17.811512 -22.642885 11.594581 -4.458959 3.049720
lowerback -13.942337 -1.883986 -4.007373 
upperback 2.095020 -1.756859 -0.551417 
thorax 10.239391 -1.053923 1.271991 
lowerneck -4.139624 -0.719808 1.775471 
upperneck 23.955004 -0.554666 -3.045666 
head 8.045643 -0.391015 -1.360855 
rclavicle 0.000000 0.000000 
rhumerus -38.234494 -15.817977 -79.007012 
rradius 32.531736 
rwrist 29.712729 
rhand -17.316008 -16.571031 
rfingers 0.000000 
rthumb 8.930377 -46.362089 
lclavicle 0.000000 0.000000 
lhumerus -12.911270 6.822904 93.303370 
lradius 38.763588 
lwrist -36.741923 
lhand -20.230665 1.970670 
lfingers 0.000000 
lthumb 6.117137 31.862392 
rfemur -30.596172 0.499879 23.394665 
rtibia 28.186938 
rfoot -12.766787 -9.991306 
rtoes -18.244066 
lfemur -8.768684 5.009057 -25.819959 
ltibia 36.395481 
lfoot 2.644629 -10.996268 
ltoes -32.385348 
40
root -7.974203 17.806796 -22.567717 11.621876 -4.485800 2.914298
lowerback -13.987380 -1.837245 -3.981847 
upperback 2.096239 -1.705727 -0.460794 
thorax 10.266036 -1.031560 1.366328 
lowerneck -4.169605 -0.822898 1.736824 
upperneck 23.963820 -0.665431 -3.168106 
head 8.050349 -0.457902 -1.404029 
rclavicle 0.000000 0.000000 
rhumerus -38.153504 -15.008097 -79.426943 
rradius 33.015123 
rwrist 29.120783 
rhand -17.331062 -16.680845 
rfingers 0.000000 
rthumb 8.915890 -46.472485 
lclavicle 0.000000 0.000000 
lhumerus -13.042613 7.674876 93.279140 
lradius 38.136461 
lwrist -37.158702 
lhand -20.171875 1.886072 
lfingers 0.000000 
lthumb 6.173856 31.776083 
rfemur -30.356177 0.660845 23.565762 
rtibia 28.285251 
rfoot -13.126850 -9.951638 
rtoes -18.093171 
lfemur -9.520934 5.969741 -25.291028 
ltibia 37.993914 
lfoot 4.364973 -11.570776 
ltoes -31.986682 
